<svg xmlns="http://www.w3.org/2000/svg" width="1200" height="700" viewBox="0 0 1200 700">
  <defs>
    <linearGradient id="g" x1="0" y1="1" x2="1" y2="0">
      <stop offset="0%" stop-color="#a855f7" stop-opacity="0.18"/>
      <stop offset="100%" stop-color="#0b0f14" stop-opacity="1"/>
    </linearGradient>
  </defs>
  <rect width="1200" height="700" fill="url(#g)"/>
  <rect x="80" y="80" width="1040" height="540" rx="26" fill="#0f1621" stroke="rgba(255,255,255,0.12)"/>

  <text x="120" y="145" font-family="ui-sans-serif, system-ui" font-size="40" fill="#e7eef7">Analytics Dashboard</text>
  <text x="120" y="185" font-family="ui-sans-serif, system-ui" font-size="18" fill="#93a4b7">All four KPIs have equal visual weight — MRR should dominate.</text>

  <!-- KPI cards row -->
  <!-- MRR -->
  <rect x="120" y="220" width="230" height="120" rx="16" fill="rgba(168,85,247,0.1)" stroke="rgba(168,85,247,0.25)"/>
  <text x="140" y="258" font-family="ui-monospace, SFMono-Regular, Menlo, Monaco, Consolas" font-size="12" fill="#93a4b7">MRR</text>
  <text x="140" y="300" font-family="ui-sans-serif, system-ui" font-size="32" fill="#e7eef7">$48.2k</text>
  <text x="140" y="325" font-family="ui-monospace, SFMono-Regular, Menlo, Monaco, Consolas" font-size="12" fill="#4ade80">↑ 12%</text>

  <!-- Churn -->
  <rect x="370" y="220" width="230" height="120" rx="16" fill="rgba(168,85,247,0.1)" stroke="rgba(168,85,247,0.25)"/>
  <text x="390" y="258" font-family="ui-monospace, SFMono-Regular, Menlo, Monaco, Consolas" font-size="12" fill="#93a4b7">Churn Rate</text>
  <text x="390" y="300" font-family="ui-sans-serif, system-ui" font-size="32" fill="#e7eef7">3.2%</text>
  <text x="390" y="325" font-family="ui-monospace, SFMono-Regular, Menlo, Monaco, Consolas" font-size="12" fill="#f87171">↑ 0.4%</text>

  <!-- Active Users -->
  <rect x="620" y="220" width="230" height="120" rx="16" fill="rgba(168,85,247,0.1)" stroke="rgba(168,85,247,0.25)"/>
  <text x="640" y="258" font-family="ui-monospace, SFMono-Regular, Menlo, Monaco, Consolas" font-size="12" fill="#93a4b7">Active Users</text>
  <text x="640" y="300" font-family="ui-sans-serif, system-ui" font-size="32" fill="#e7eef7">1,847</text>
  <text x="640" y="325" font-family="ui-monospace, SFMono-Regular, Menlo, Monaco, Consolas" font-size="12" fill="#4ade80">↑ 8%</text>

  <!-- NPS -->
  <rect x="870" y="220" width="230" height="120" rx="16" fill="rgba(168,85,247,0.1)" stroke="rgba(168,85,247,0.25)"/>
  <text x="890" y="258" font-family="ui-monospace, SFMono-Regular, Menlo, Monaco, Consolas" font-size="12" fill="#93a4b7">NPS</text>
  <text x="890" y="300" font-family="ui-sans-serif, system-ui" font-size="32" fill="#e7eef7">62</text>
  <text x="890" y="325" font-family="ui-monospace, SFMono-Regular, Menlo, Monaco, Consolas" font-size="12" fill="#93a4b7">→ 0</text>

  <!-- Chart placeholder -->
  <rect x="120" y="370" width="730" height="220" rx="16" fill="rgba(255,255,255,0.03)" stroke="rgba(255,255,255,0.08)"/>
  <text x="150" y="410" font-family="ui-monospace, SFMono-Regular, Menlo, Monaco, Consolas" font-size="14" fill="#93a4b7">Revenue trend (12 months)</text>
  <!-- Fake chart bars -->
  <rect x="170" y="480" width="40" height="80" rx="4" fill="rgba(168,85,247,0.2)"/>
  <rect x="230" y="460" width="40" height="100" rx="4" fill="rgba(168,85,247,0.25)"/>
  <rect x="290" y="440" width="40" height="120" rx="4" fill="rgba(168,85,247,0.3)"/>
  <rect x="350" y="450" width="40" height="110" rx="4" fill="rgba(168,85,247,0.28)"/>
  <rect x="410" y="430" width="40" height="130" rx="4" fill="rgba(168,85,247,0.35)"/>
  <rect x="470" y="420" width="40" height="140" rx="4" fill="rgba(168,85,247,0.38)"/>
  <rect x="530" y="440" width="40" height="120" rx="4" fill="rgba(168,85,247,0.3)"/>
  <rect x="590" y="410" width="40" height="150" rx="4" fill="rgba(168,85,247,0.45)"/>
  <rect x="650" y="400" width="40" height="160" rx="4" fill="rgba(168,85,247,0.5)"/>
  <rect x="710" y="390" width="40" height="170" rx="4" fill="rgba(168,85,247,0.55)"/>
  <rect x="770" y="380" width="40" height="180" rx="4" fill="rgba(168,85,247,0.6)"/>

  <!-- Sidebar -->
  <rect x="870" y="370" width="230" height="220" rx="16" fill="rgba(255,255,255,0.03)" stroke="rgba(255,255,255,0.08)"/>
  <text x="895" y="408" font-family="ui-monospace, SFMono-Regular, Menlo, Monaco, Consolas" font-size="13" fill="#93a4b7">Quick filters</text>
  <rect x="895" y="425" width="180" height="28" rx="8" fill="rgba(255,255,255,0.04)" stroke="rgba(255,255,255,0.08)"/>
  <rect x="895" y="465" width="180" height="28" rx="8" fill="rgba(255,255,255,0.04)" stroke="rgba(255,255,255,0.08)"/>
  <rect x="895" y="505" width="180" height="28" rx="8" fill="rgba(255,255,255,0.04)" stroke="rgba(255,255,255,0.08)"/>
  <rect x="895" y="545" width="180" height="28" rx="8" fill="rgba(255,255,255,0.04)" stroke="rgba(255,255,255,0.08)"/>
</svg>
