<svg xmlns="http://www.w3.org/2000/svg" width="1200" height="700" viewBox="0 0 1200 700">
  <defs>
    <linearGradient id="g" x1="0" y1="1" x2="1" y2="0">
      <stop offset="0%" stop-color="#10b981" stop-opacity="0.2"/>
      <stop offset="100%" stop-color="#0b0f14" stop-opacity="1"/>
    </linearGradient>
  </defs>
  <rect width="1200" height="700" fill="url(#g)"/>
  <rect x="80" y="60" width="1040" height="580" rx="26" fill="#0f1621" stroke="rgba(255,255,255,0.12)"/>

  <!-- Patient portal header -->
  <rect x="100" y="80" width="1000" height="50" rx="12" fill="rgba(255,255,255,0.02)" stroke="rgba(255,255,255,0.06)"/>
  <text x="130" y="112" font-family="ui-sans-serif, system-ui" font-size="18" fill="#e7eef7">MyHealth Portal</text>
  <rect x="850" y="95" width="80" height="24" rx="6" fill="rgba(16,185,129,0.15)" stroke="rgba(16,185,129,0.25)"/>
  <text x="862" y="112" font-family="ui-monospace, SFMono-Regular, Menlo, Monaco, Consolas" font-size="11" fill="#10b981">Patient</text>
  <rect x="945" y="95" width="120" height="24" rx="6" fill="rgba(255,255,255,0.04)" stroke="rgba(255,255,255,0.08)"/>
  <text x="965" y="112" font-family="ui-monospace, SFMono-Regular, Menlo, Monaco, Consolas" font-size="11" fill="#93a4b7">Jane D., 54</text>

  <!-- Visit summary card -->
  <rect x="100" y="150" width="600" height="470" rx="18" fill="rgba(255,255,255,0.02)" stroke="rgba(255,255,255,0.06)"/>
  <text x="130" y="190" font-family="ui-sans-serif, system-ui" font-size="20" fill="#e7eef7">Visit Summary — Feb 10, 2026</text>
  <text x="130" y="215" font-family="ui-monospace, SFMono-Regular, Menlo, Monaco, Consolas" font-size="12" fill="#93a4b7">AI-generated from physician notes</text>

  <!-- Summary content -->
  <text x="130" y="255" font-family="ui-sans-serif, system-ui" font-size="15" fill="#10b981">Diagnosis</text>
  <rect x="130" y="268" width="520" height="12" rx="6" fill="rgba(231,238,247,0.12)"/>
  <rect x="130" y="290" width="440" height="12" rx="6" fill="rgba(231,238,247,0.08)"/>

  <text x="130" y="330" font-family="ui-sans-serif, system-ui" font-size="15" fill="#10b981">Medications</text>
  <rect x="130" y="345" width="240" height="32" rx="8" fill="rgba(16,185,129,0.08)" stroke="rgba(16,185,129,0.15)"/>
  <text x="145" y="366" font-family="ui-monospace, SFMono-Regular, Menlo, Monaco, Consolas" font-size="12" fill="#e7eef7">Metformin 500mg 2x/day</text>
  <rect x="390" y="345" width="220" height="32" rx="8" fill="rgba(16,185,129,0.08)" stroke="rgba(16,185,129,0.15)"/>
  <text x="405" y="366" font-family="ui-monospace, SFMono-Regular, Menlo, Monaco, Consolas" font-size="12" fill="#e7eef7">Lisinopril 10mg 1x/day</text>

  <text x="130" y="410" font-family="ui-sans-serif, system-ui" font-size="15" fill="#10b981">Key instructions</text>
  <rect x="130" y="425" width="540" height="12" rx="6" fill="rgba(231,238,247,0.1)"/>
  <rect x="130" y="447" width="480" height="12" rx="6" fill="rgba(231,238,247,0.08)"/>
  <rect x="130" y="469" width="500" height="12" rx="6" fill="rgba(231,238,247,0.08)"/>

  <text x="130" y="510" font-family="ui-sans-serif, system-ui" font-size="15" fill="#10b981">Follow-up</text>
  <rect x="130" y="525" width="400" height="12" rx="6" fill="rgba(231,238,247,0.1)"/>
  <rect x="130" y="547" width="350" height="12" rx="6" fill="rgba(231,238,247,0.08)"/>

  <!-- Disclaimer -->
  <rect x="130" y="575" width="540" height="30" rx="8" fill="rgba(251,191,36,0.08)" stroke="rgba(251,191,36,0.15)"/>
  <text x="150" y="595" font-family="ui-monospace, SFMono-Regular, Menlo, Monaco, Consolas" font-size="11" fill="#fbbf24">AI-generated summary — verify with your physician</text>

  <!-- Accuracy panel -->
  <rect x="720" y="150" width="380" height="470" rx="18" fill="rgba(255,255,255,0.02)" stroke="rgba(255,255,255,0.06)"/>
  <text x="750" y="190" font-family="ui-monospace, SFMono-Regular, Menlo, Monaco, Consolas" font-size="14" fill="#93a4b7">Accuracy check</text>

  <text x="750" y="235" font-family="ui-monospace, SFMono-Regular, Menlo, Monaco, Consolas" font-size="12" fill="#737373">Diagnosis match</text>
  <rect x="750" y="245" width="320" height="8" rx="4" fill="rgba(255,255,255,0.06)"/>
  <rect x="750" y="245" width="280" height="8" rx="4" fill="rgba(16,185,129,0.5)"/>
  <text x="750" y="275" font-family="ui-monospace, SFMono-Regular, Menlo, Monaco, Consolas" font-size="12" fill="#93a4b7">Extracted from notes: Type 2 Diabetes</text>

  <text x="750" y="310" font-family="ui-monospace, SFMono-Regular, Menlo, Monaco, Consolas" font-size="12" fill="#737373">Medication match</text>
  <rect x="750" y="320" width="320" height="8" rx="4" fill="rgba(255,255,255,0.06)"/>
  <rect x="750" y="320" width="230" height="8" rx="4" fill="rgba(251,191,36,0.5)"/>
  <text x="750" y="350" font-family="ui-monospace, SFMono-Regular, Menlo, Monaco, Consolas" font-size="12" fill="#fbbf24">Dosage needs human verification</text>

  <text x="750" y="385" font-family="ui-monospace, SFMono-Regular, Menlo, Monaco, Consolas" font-size="12" fill="#737373">Instructions clarity</text>
  <rect x="750" y="395" width="320" height="8" rx="4" fill="rgba(255,255,255,0.06)"/>
  <rect x="750" y="395" width="200" height="8" rx="4" fill="rgba(251,191,36,0.5)"/>
  <text x="750" y="425" font-family="ui-monospace, SFMono-Regular, Menlo, Monaco, Consolas" font-size="12" fill="#fbbf24">May oversimplify dietary advice</text>

  <rect x="750" y="455" width="320" height="1" fill="rgba(255,255,255,0.06)"/>

  <text x="750" y="490" font-family="ui-monospace, SFMono-Regular, Menlo, Monaco, Consolas" font-size="13" fill="#93a4b7">Flagged concerns:</text>
  <text x="750" y="515" font-family="ui-monospace, SFMono-Regular, Menlo, Monaco, Consolas" font-size="12" fill="#f87171">• Drug interaction not mentioned</text>
  <text x="750" y="540" font-family="ui-monospace, SFMono-Regular, Menlo, Monaco, Consolas" font-size="12" fill="#f87171">• A1C target omitted</text>
  <text x="750" y="565" font-family="ui-monospace, SFMono-Regular, Menlo, Monaco, Consolas" font-size="12" fill="#fbbf24">• Exercise guidance vague</text>
  <text x="750" y="590" font-family="ui-monospace, SFMono-Regular, Menlo, Monaco, Consolas" font-size="12" fill="#4ade80">• Follow-up date correct</text>
</svg>
