<svg xmlns="http://www.w3.org/2000/svg" width="1200" height="700" viewBox="0 0 1200 700">
  <defs>
    <linearGradient id="g" x1="0.5" y1="0" x2="0.5" y2="1">
      <stop offset="0%" stop-color="#14b8a6" stop-opacity="0.2"/>
      <stop offset="100%" stop-color="#0b0f14" stop-opacity="1"/>
    </linearGradient>
  </defs>
  <rect width="1200" height="700" fill="url(#g)"/>
  <rect x="80" y="60" width="1040" height="580" rx="26" fill="#0f1621" stroke="rgba(255,255,255,0.12)"/>

  <text x="400" y="125" font-family="ui-sans-serif, system-ui" font-size="36" fill="#e7eef7">Choose your plan</text>
  <text x="350" y="160" font-family="ui-sans-serif, system-ui" font-size="18" fill="#93a4b7">Is the Free → Pro upgrade path compelling enough?</text>

  <!-- Free tier -->
  <rect x="120" y="200" width="280" height="400" rx="18" fill="rgba(255,255,255,0.03)" stroke="rgba(255,255,255,0.1)"/>
  <text x="220" y="250" font-family="ui-sans-serif, system-ui" font-size="24" fill="#e7eef7">Free</text>
  <text x="230" y="290" font-family="ui-sans-serif, system-ui" font-size="36" fill="#e7eef7">$0</text>
  <text x="230" y="315" font-family="ui-sans-serif, system-ui" font-size="14" fill="#93a4b7">forever</text>

  <rect x="150" y="345" width="220" height="10" rx="5" fill="rgba(231,238,247,0.1)"/>
  <text x="155" y="342" font-family="ui-monospace, SFMono-Regular, Menlo, Monaco, Consolas" font-size="12" fill="#93a4b7">3 projects</text>
  <rect x="150" y="380" width="220" height="10" rx="5" fill="rgba(231,238,247,0.1)"/>
  <text x="155" y="377" font-family="ui-monospace, SFMono-Regular, Menlo, Monaco, Consolas" font-size="12" fill="#93a4b7">1 GB storage</text>
  <rect x="150" y="415" width="220" height="10" rx="5" fill="rgba(231,238,247,0.1)"/>
  <text x="155" y="412" font-family="ui-monospace, SFMono-Regular, Menlo, Monaco, Consolas" font-size="12" fill="#93a4b7">Community support</text>

  <rect x="150" y="530" width="220" height="44" rx="12" fill="rgba(255,255,255,0.06)" stroke="rgba(255,255,255,0.12)"/>
  <text x="220" y="558" font-family="ui-sans-serif, system-ui" font-size="15" fill="#e7eef7">Current plan</text>

  <!-- Pro tier (highlighted) -->
  <rect x="430" y="190" width="300" height="420" rx="18" fill="rgba(20,184,166,0.08)" stroke="rgba(20,184,166,0.4)" stroke-width="2"/>
  <rect x="510" y="196" width="140" height="24" rx="12" fill="rgba(20,184,166,0.8)"/>
  <text x="535" y="213" font-family="ui-sans-serif, system-ui" font-size="12" fill="#021a17">Most popular</text>

  <text x="540" y="260" font-family="ui-sans-serif, system-ui" font-size="24" fill="#e7eef7">Pro</text>
  <text x="525" y="300" font-family="ui-sans-serif, system-ui" font-size="36" fill="#e7eef7">$12</text>
  <text x="525" y="325" font-family="ui-sans-serif, system-ui" font-size="14" fill="#93a4b7">/month</text>

  <text x="465" y="355" font-family="ui-monospace, SFMono-Regular, Menlo, Monaco, Consolas" font-size="12" fill="#14b8a6">✓ Unlimited projects</text>
  <rect x="460" y="365" width="240" height="10" rx="5" fill="rgba(20,184,166,0.1)"/>
  <text x="465" y="395" font-family="ui-monospace, SFMono-Regular, Menlo, Monaco, Consolas" font-size="12" fill="#14b8a6">✓ 50 GB storage</text>
  <rect x="460" y="405" width="240" height="10" rx="5" fill="rgba(20,184,166,0.1)"/>
  <text x="465" y="435" font-family="ui-monospace, SFMono-Regular, Menlo, Monaco, Consolas" font-size="12" fill="#14b8a6">✓ Priority support</text>
  <rect x="460" y="445" width="240" height="10" rx="5" fill="rgba(20,184,166,0.1)"/>
  <text x="465" y="475" font-family="ui-monospace, SFMono-Regular, Menlo, Monaco, Consolas" font-size="12" fill="#14b8a6">✓ Advanced analytics</text>

  <rect x="460" y="540" width="240" height="48" rx="14" fill="rgba(20,184,166,0.85)"/>
  <text x="535" y="570" font-family="ui-sans-serif, system-ui" font-size="16" fill="#021a17">Upgrade</text>

  <!-- Enterprise tier -->
  <rect x="760" y="200" width="280" height="400" rx="18" fill="rgba(255,255,255,0.03)" stroke="rgba(255,255,255,0.1)"/>
  <text x="845" y="250" font-family="ui-sans-serif, system-ui" font-size="24" fill="#e7eef7">Enterprise</text>
  <text x="855" y="290" font-family="ui-sans-serif, system-ui" font-size="28" fill="#e7eef7">Custom</text>
  <text x="850" y="315" font-family="ui-sans-serif, system-ui" font-size="14" fill="#93a4b7">contact sales</text>

  <text x="795" y="352" font-family="ui-monospace, SFMono-Regular, Menlo, Monaco, Consolas" font-size="12" fill="#93a4b7">Everything in Pro, plus:</text>
  <rect x="790" y="365" width="220" height="10" rx="5" fill="rgba(231,238,247,0.1)"/>
  <text x="795" y="395" font-family="ui-monospace, SFMono-Regular, Menlo, Monaco, Consolas" font-size="12" fill="#93a4b7">SSO &amp; SAML</text>
  <rect x="790" y="405" width="220" height="10" rx="5" fill="rgba(231,238,247,0.1)"/>
  <text x="795" y="435" font-family="ui-monospace, SFMono-Regular, Menlo, Monaco, Consolas" font-size="12" fill="#93a4b7">Dedicated support</text>
  <rect x="790" y="445" width="220" height="10" rx="5" fill="rgba(231,238,247,0.1)"/>

  <rect x="790" y="540" width="220" height="44" rx="12" fill="rgba(255,255,255,0.06)" stroke="rgba(255,255,255,0.12)"/>
  <text x="855" y="568" font-family="ui-sans-serif, system-ui" font-size="15" fill="#e7eef7">Contact us</text>
</svg>
